<svg xmlns="http://www.w3.org/2000/svg" viewBox="0 0 5.04 6.37"><defs><style>.cls-1{fill:#4cbfdd;fill-rule:evenodd;}</style></defs><title>Fichier 1</title><g id="Calque_2" data-name="Calque 2"><g id="Calque_1-2" data-name="Calque 1"><path class="cls-1" d="M3.42,4a8.85,8.85,0,0,1-.09,1.19l-.06.36a1.1,1.1,0,0,1-.4.71.7.7,0,0,1-.68.11,1,1,0,0,1-.59-.71,1.58,1.58,0,0,1,0-.65,5.51,5.51,0,0,0,.09-1.35c0-.11,0-.22,0-.33a1.28,1.28,0,0,1,.13-.75.91.91,0,0,1,.56-.48.82.82,0,0,1,.92.53,2,2,0,0,1,.13.53C3.4,3.41,3.42,3.71,3.42,4Zm-.11-.07a7.93,7.93,0,0,0-.07-.84A1,1,0,0,0,3,2.4a.63.63,0,0,0-.61-.2.68.68,0,0,0-.46.36,1.1,1.1,0,0,0-.15.72c0,.18,0,.37.05.55a4.35,4.35,0,0,1,0,.51c0,.24-.05.49-.08.73a1,1,0,0,0,.2.87.61.61,0,0,0,.82.22.88.88,0,0,0,.45-.67c0-.17,0-.34.07-.51A7.88,7.88,0,0,0,3.31,3.89Z"/><path class="cls-1" d="M.7,4.54c0,.28,0,.55,0,.83a2,2,0,0,0,0,.23c0,.05,0,.09,0,.09s-.06,0-.06-.08a8.38,8.38,0,0,1,0-1.12,6,6,0,0,0,0-1,2.81,2.81,0,0,0,0-.29s0-.08.06-.08.05,0,.05.08,0,.31,0,.47,0,.55,0,.82Z"/><path class="cls-1" d="M3.06,1.2c0,.05,0,.08-.08.06a1.44,1.44,0,0,0-.54-.1,1.35,1.35,0,0,0-.84.36,1.86,1.86,0,0,0-.27.29s-.07.05-.1,0a.09.09,0,0,1,0-.11,1.63,1.63,0,0,1,.87-.64,1.3,1.3,0,0,1,.89,0S3.06,1.16,3.06,1.2Z"/><path class="cls-1" d="M2.48,1.35a1.29,1.29,0,0,1,.88.39,1.84,1.84,0,0,1,.43.73.14.14,0,0,1,0,.09s-.08,0-.1,0a1.76,1.76,0,0,0-.17-.37,1.39,1.39,0,0,0-.62-.56,1.1,1.1,0,0,0-.67-.06.05.05,0,0,1-.07-.05s0-.08,0-.08Z"/><path class="cls-1" d="M0,2.73l.06-.4a3.05,3.05,0,0,1,.24-.74A3,3,0,0,1,.79.84L.94.67S1,.64,1,.68A.08.08,0,0,1,1,.79a2.8,2.8,0,0,0-.39.49,3.42,3.42,0,0,0-.38.87,3.76,3.76,0,0,0-.1.6s0,.07-.06.06S0,2.78,0,2.73Z"/><path class="cls-1" d="M1.25,4.05a6.58,6.58,0,0,1-.07.74,2.26,2.26,0,0,0,0,.86,1.77,1.77,0,0,0,.15.46.09.09,0,0,1,0,.1s-.07,0-.08,0a1.45,1.45,0,0,1-.11-.29A2.42,2.42,0,0,1,1,5.1c0-.17,0-.34.06-.5a5.34,5.34,0,0,0,0-.69.13.13,0,0,1,0-.06c0-.06,0-.09.06-.1s.06,0,.06.1Z"/><path class="cls-1" d="M2.45.68a1.56,1.56,0,0,1,.9.26,2.34,2.34,0,0,1,.31.24.1.1,0,0,1,0,.08.06.06,0,0,1-.1,0l-.2-.17a1.53,1.53,0,0,0-1-.3A1.41,1.41,0,0,0,1.88,1s-.07,0-.08,0,0-.08.05-.1A1.91,1.91,0,0,1,2.26.7Z"/><path class="cls-1" d="M4.2,3.26s0,.08,0,.09a.07.07,0,0,1-.06,0s0,0,0-.07,0-.33-.06-.5a2,2,0,0,0-.56-1.16l-.24-.2a.08.08,0,0,1,0-.07.11.11,0,0,1,0-.06,0,0,0,0,1,0,0,1.65,1.65,0,0,1,.37.33A2,2,0,0,1,3.91,2a3.54,3.54,0,0,1,.18.49,4.92,4.92,0,0,1,.1.67Z"/><path class="cls-1" d="M4.23,4.14l0,.59a6.4,6.4,0,0,1-.09.88c0,.12-.05.24-.08.36S4,6,4,6s0,0,0-.1A6,6,0,0,0,4,5.32c0-.25.06-.5.07-.75s0-.63,0-1c0-.05,0-.09.06-.09s.06,0,.06.09v.52Z"/><path class="cls-1" d="M4.72,1.76s0,0,0,.05,0,0-.06,0l-.07-.15A3,3,0,0,0,4,.84,2.31,2.31,0,0,0,3.25.3a.08.08,0,0,1,0-.09s0-.06.09,0a3.59,3.59,0,0,1,.38.21,2.32,2.32,0,0,1,.58.55,2.74,2.74,0,0,1,.45.78S4.71,1.73,4.72,1.76Z"/><path class="cls-1" d="M5,3.85C5,4,5,4.19,5,4.38s0,.08-.06.08,0,0,0-.09a6.61,6.61,0,0,0,0-1.09c0-.22,0-.44-.07-.66s-.08-.35-.11-.53a0,0,0,0,1,0,0s0-.08,0-.09S4.8,2,4.82,2a3.86,3.86,0,0,1,.12.59c0,.27.06.54.08.81S5,3.68,5,3.85Z"/><path class="cls-1" d="M2.45,0A1.88,1.88,0,0,1,3,.07c.06,0,.08,0,.07.09S3,.22,3,.21A1.88,1.88,0,0,0,2.4.14,2.08,2.08,0,0,0,1.28.55L1.22.6s-.06,0-.07,0a.06.06,0,0,1,0-.09A.61.61,0,0,1,1.33.36,2.11,2.11,0,0,1,2.22,0Z"/><path class="cls-1" d="M2,1.48l0,.06a.07.07,0,0,1,0,.08l-.15.09a1.67,1.67,0,0,0-.64,1.16,1.88,1.88,0,0,0,0,.58v0c0,.06,0,.09-.05.1s0,0-.06-.08a2.11,2.11,0,0,1,.12-1.17,1.59,1.59,0,0,1,.71-.83H2Z"/><path class="cls-1" d="M4.48,3.53s0,.08,0,.12,0,.08-.06.08,0,0-.06-.08l0-.53a3.43,3.43,0,0,0-.13-.79,2.32,2.32,0,0,0-.36-.74L3.8,1.52a.09.09,0,0,1,0-.11s.06,0,.09,0l.18.27a2.69,2.69,0,0,1,.33.9A7.3,7.3,0,0,1,4.48,3.53Z"/><path class="cls-1" d="M.85,4.34a3.49,3.49,0,0,0,0-.46,3.42,3.42,0,0,0,0-.45,2.65,2.65,0,0,1,.09-1c0-.14.1-.27.15-.41s.06-.06.09,0a.09.09,0,0,1,0,.12,2.64,2.64,0,0,0-.2.58,2.82,2.82,0,0,0,0,.87,3.74,3.74,0,0,1,0,.82.07.07,0,0,1-.07.06A.06.06,0,0,1,.85,4.34Z"/><path class="cls-1" d="M4,4c0,.32,0,.63-.06,1l0,.27s0,.08,0,.08-.06,0-.06-.09,0-.26,0-.4a7.85,7.85,0,0,0,0-1.19c0-.24,0-.48-.08-.72,0-.06,0-.09,0-.1s.07,0,.08.07,0,.23,0,.34L4,4Z"/><path class="cls-1" d="M.56,2.9a5.07,5.07,0,0,1,.09-.54,2.85,2.85,0,0,1,.27-.67,2.14,2.14,0,0,1,.43-.55L1.58,1s.07,0,.09,0a.1.1,0,0,1,0,.11,1.48,1.48,0,0,0-.43.4A2.65,2.65,0,0,0,.69,2.77a.78.78,0,0,1,0,.16S.65,3,.61,3,.56,3,.56,2.9Z"/><path class="cls-1" d="M3.68,4.31c0,.36-.06.72-.11,1.08a3.56,3.56,0,0,1-.1.47,2.35,2.35,0,0,1-.22.45s-.06.05-.08,0a.09.09,0,0,1,0-.11,1.55,1.55,0,0,0,.25-.59c0-.23.07-.46.1-.7s0-.4.06-.61V4.21s0-.08.06-.07.05,0,.05.07Z"/><path class="cls-1" d="M2.8,1.9l-.16,0a1,1,0,0,0-1,.62c0,.09-.07.19-.11.3s0,.07-.07.06a.09.09,0,0,1,0-.1A1.61,1.61,0,0,1,1.75,2a1,1,0,0,1,.71-.34,1,1,0,0,1,.34.06s0,0,0,0,0,0,0,.08S2.83,1.91,2.8,1.9Z"/><path class="cls-1" d="M1.52,3.9a5.35,5.35,0,0,1-.06.84c0,.12,0,.23-.05.34s0,.09,0,.14,0,.09-.06.09-.05,0-.05-.09,0-.29.05-.43a5.29,5.29,0,0,0,.06-1c0-.15,0-.3,0-.45a1.48,1.48,0,0,1,0-.21s0-.07,0-.07.06,0,.06.07,0,.37.05.55S1.52,3.84,1.52,3.9Z"/><path class="cls-1" d="M3.69,3.75v.13c0,.05,0,.08-.06.08s0,0,0-.08c0-.32,0-.64-.08-1a1.36,1.36,0,0,0-.42-.84L3,2a.11.11,0,0,1,0-.11.06.06,0,0,1,.09,0,1.36,1.36,0,0,1,.36.42,2,2,0,0,1,.2.69c0,.25,0,.49.07.73Z"/><path class="cls-1" d="M2.41.42a.07.07,0,0,1-.06.07l-.3.05a1.82,1.82,0,0,0-.6.28,2.46,2.46,0,0,0-.51.51l0,0s-.06,0-.08,0a.07.07,0,0,1,0-.1L1.06,1A1.87,1.87,0,0,1,1.92.44,2.1,2.1,0,0,1,2.34.35S2.41.37,2.41.42Z"/><path class="cls-1" d="M.27,3.13A3.3,3.3,0,0,1,.68,1.51l0,0a0,0,0,0,1,.07,0,.07.07,0,0,1,0,.09l-.09.18a3.16,3.16,0,0,0-.3,1.06,3,3,0,0,0,0,.67v0s0,.08-.05.08,0,0-.06-.06a1.23,1.23,0,0,1,0-.19Z"/><path class="cls-1" d="M4.76,3.45s0,.09,0,.09-.06,0-.07-.08,0-.32,0-.47a4.16,4.16,0,0,0-.12-.72,3.45,3.45,0,0,0-.23-.59,1.09,1.09,0,0,1-.08-.15s0-.08,0-.1a0,0,0,0,1,.08,0,3.38,3.38,0,0,1,.35.85,7.91,7.91,0,0,1,.13.87A2.46,2.46,0,0,0,4.76,3.45Z"/><path class="cls-1" d="M2.62.35a1.72,1.72,0,0,1,.5.11,2,2,0,0,1,.57.33,2.1,2.1,0,0,1,.41.43.07.07,0,0,1,0,.1s-.06,0-.08,0A2.36,2.36,0,0,0,3.3.69,1.85,1.85,0,0,0,2.74.5l-.16,0s-.06,0-.06-.07,0-.07.06-.07Z"/><path class="cls-1" d="M4.49,4.3c0,.34,0,.69-.07,1l0,.22s0,.08-.06.07,0,0,0-.1A10.84,10.84,0,0,0,4.38,4V4s0-.08.06-.08,0,0,0,.07V4.3Z"/><path class="cls-1" d="M.11,3.33c0,.24,0,.47.05.7l0,.48q0,.09-.06.09s0,0-.06-.08,0-.4,0-.6,0-.55,0-.82v0C0,3,0,3,.06,3s.06,0,.06.08,0,.09,0,.13v.13Z"/><path class="cls-1" d="M.91,4.67c0,.09,0,.19,0,.28a5.58,5.58,0,0,0,.12,1A.09.09,0,0,1,1,6,.07.07,0,0,1,.91,6L.85,5.63a4.9,4.9,0,0,1-.06-.77,1.49,1.49,0,0,1,0-.21.06.06,0,0,1,.06-.06A.06.06,0,0,1,.91,4.67Z"/><path class="cls-1" d="M.44,4.35.47,5s0,.08,0,.08S.36,5.05.36,5l0-.94c0-.08,0-.16,0-.24s0-.1.08-.07a.08.08,0,0,1,0,.07c0,.15,0,.31,0,.46v.07Z"/><path class="cls-1" d="M4.78,4.18c0,.25,0,.5,0,.75a.11.11,0,0,1,0,.07h0a.07.07,0,0,1,0-.06c0-.09,0-.18,0-.27a8.42,8.42,0,0,0,0-.87v0s0-.07,0-.07a.07.07,0,0,1,.06.07v.17a2.26,2.26,0,0,1,0,.26Z"/><path class="cls-1" d="M1.78,6.26l0,.06H1.69a.87.87,0,0,1-.16-.17,1.27,1.27,0,0,1-.21-.58s0-.08,0-.08.06,0,.07.06a2.68,2.68,0,0,0,.07.27.78.78,0,0,0,.24.38A.09.09,0,0,1,1.78,6.26Z"/><path class="cls-1" d="M3.85,5.52a3.06,3.06,0,0,1-.13.6.35.35,0,0,1-.05.08,0,0,0,0,1-.07,0,.08.08,0,0,1,0-.09,1.55,1.55,0,0,0,.15-.57.13.13,0,0,1,0-.06s0-.06.06-.06S3.85,5.47,3.85,5.52Z"/><path class="cls-1" d="M1.9,3.25a.75.75,0,0,1,.47-.85A.58.58,0,0,1,3,2.84a3.11,3.11,0,0,1,.07.44l0,.34V4a7.3,7.3,0,0,1-.06.94c0,.18,0,.35-.07.53-.07.5-.52.77-.88.52a.86.86,0,0,1-.29-.84,8,8,0,0,0,.1-.84M3,3.94A6.22,6.22,0,0,0,3,3.08a.63.63,0,0,0-.26-.48.38.38,0,0,0-.49,0A.64.64,0,0,0,2,3.19c0,.18,0,.36.05.55A6.46,6.46,0,0,1,2,4.9c0,.11,0,.23-.05.35a.57.57,0,0,0,.48.64.49.49,0,0,0,.45-.39c0-.12,0-.25.07-.38A7.72,7.72,0,0,0,3,3.94Z"/><path class="cls-1" d="M2.87,4A6.59,6.59,0,0,1,2.78,5.1a2.7,2.7,0,0,1,0,.28.35.35,0,0,1-.31.31.35.35,0,0,1-.33-.31.93.93,0,0,1,0-.29,8,8,0,0,0,.1-1.19,5.19,5.19,0,0,0-.05-.68c0-.32.16-.57.41-.48a.38.38,0,0,1,.23.32A5.06,5.06,0,0,1,2.87,4ZM2.76,4a6.84,6.84,0,0,0,0-.79.85.85,0,0,0,0-.17.2.2,0,0,0-.26-.11.28.28,0,0,0-.13.3l0,.28a5.13,5.13,0,0,1,0,1c0,.27-.06.54-.1.8a.27.27,0,0,0,.17.32c.12,0,.23-.06.25-.22s0-.22.05-.34A7,7,0,0,0,2.76,4Z"/><path class="cls-1" d="M2.49,4.09a6,6,0,0,0-.05-.9.09.09,0,0,1,0,0,.08.08,0,0,1,0-.08s0,0,.06.06l0,.22a5.22,5.22,0,0,1,0,1c0,.33-.06.66-.11,1,0,0,0,.07-.07.06s-.05,0,0-.09.06-.38.08-.57S2.48,4.24,2.49,4.09Z"/></g></g></svg>