<svg xmlns="http://www.w3.org/2000/svg" viewBox="0 0 28.82 10.81"><defs><style>.cls-1{fill:#eb5c1c;}.cls-1,.cls-2{fill-rule:evenodd;}.cls-2{fill:#542582;}</style></defs><title>Fichier 2</title><g id="Calque_2" data-name="Calque 2"><g id="Calque_1-2" data-name="Calque 1"><path class="cls-1" d="M-17,494a2.77,2.77,0,0,0,.26.1,2.14,2.14,0,0,0,.38.23,2.57,2.57,0,0,0,.9.38c.27,0,.53.07.82.08a7.31,7.31,0,0,0,.94,0,6.27,6.27,0,0,0,.86-.09,3.68,3.68,0,0,0,.58-.07c.22,0,.42-.07.65-.09l1.1-.18a3.5,3.5,0,0,1,.63-.12c.26,0,.55-.05.81-.1a4.39,4.39,0,0,1,1.08.1.89.89,0,0,1,.33.08c.26.11.5.22.76.35s.26.26.42.39a2.61,2.61,0,0,1,.34.42,2.1,2.1,0,0,1,.34.88,1.57,1.57,0,0,1,0,.91,1.84,1.84,0,0,1-.62.91.58.58,0,0,1-.35.2c-.08,0-.1,0-.08-.12s0-.15,0-.26a2.76,2.76,0,0,0,.11-.7c0-.14,0-.27,0-.39a1.84,1.84,0,0,0-.26-.69,1.74,1.74,0,0,0-.65-.64,1.82,1.82,0,0,0-1.1-.21,2.65,2.65,0,0,0-.71.19,1.83,1.83,0,0,0-.42.21l-.42.24c-.15.14-.31.25-.48.38s-.33.25-.51.37-.12.09-.18.18-.29.29-.48.45a.8.8,0,0,1-.18.19c-.05,0-.1,0-.13,0a2,2,0,0,1,0-.28,1.16,1.16,0,0,0-.64-.81,2,2,0,0,0-.64-.19,8.7,8.7,0,0,0-.87-.13c-.1,0-.21-.07-.31-.12a4.7,4.7,0,0,1-1.15-.38c-.16-.11-.29-.24-.43-.34a1.8,1.8,0,0,1-.44-.62A1.87,1.87,0,0,1-17,494Z" transform="translate(32.16 -491.14)"/><path class="cls-1" d="M-18.43,494a3.49,3.49,0,0,1-.16.49,2.88,2.88,0,0,1-.26.57,1.46,1.46,0,0,1-.55.49,1.4,1.4,0,0,1-.45.24,3.83,3.83,0,0,1-.62.22c-.13,0-.24.08-.37.09l-1.18.2a1.44,1.44,0,0,0-1,.65,4,4,0,0,0-.14.45c0,.06,0,.14-.06.19s-.07,0-.13,0-.28-.29-.41-.43l-.37-.33c-.11-.11-.21-.17-.31-.26a2.86,2.86,0,0,1-.35-.28l-.47-.32a6.6,6.6,0,0,0-.7-.37,1.42,1.42,0,0,0-.71-.22h-.55a2.54,2.54,0,0,0-.29,0,1.9,1.9,0,0,0-.68.42,2.49,2.49,0,0,0-.42.65,3.74,3.74,0,0,0-.13.65,4.48,4.48,0,0,0,.13,1.1s0,.05,0,.07v.06a.43.43,0,0,1-.24,0,1.91,1.91,0,0,1-.54-.52,3.16,3.16,0,0,1-.24-.41,2.26,2.26,0,0,1-.1-.45,1.85,1.85,0,0,1,.06-.87,1.51,1.51,0,0,1,.25-.51,1.44,1.44,0,0,1,.25-.39c.12-.13.27-.26.4-.39a.5.5,0,0,1,.24-.13,2,2,0,0,1,.5-.3,3.27,3.27,0,0,1,.94-.19,1.32,1.32,0,0,1,.39-.06,4.65,4.65,0,0,1,.73.08c.36,0,.74.09,1.08.16s.49.11.74.14.77.1,1.13.17.43.07.64.08a7.16,7.16,0,0,0,1.22.05c.37-.06.71-.06,1.08-.13a2.49,2.49,0,0,0,.73-.3l.27-.12.55-.32.05.06" transform="translate(32.16 -491.14)"/><path class="cls-2" d="M-16.31,501.75a.7.7,0,0,1,.18-.31c.21-.15.41-.33.63-.48a7,7,0,0,0,.68-.54c.31-.19.61-.43.91-.65s.34-.22.53-.36a3.24,3.24,0,0,1,.36-.2c.21-.14.4-.24.62-.36l.57-.26a5.61,5.61,0,0,1,.67-.19,2.84,2.84,0,0,1,.84-.15,1.91,1.91,0,0,1,1,.28,4,4,0,0,1,.58.44c.16.18.37.34.55.51a3.45,3.45,0,0,0,.39.38,3.17,3.17,0,0,0,.45.35.92.92,0,0,0,.31.16,1.83,1.83,0,0,0,1,.24,2.29,2.29,0,0,0,.5-.09l.6-.16s.08-.05.13-.07l.6-.25c.19-.08.37-.19.53-.27l.31-.12a0,0,0,0,1,0,0c-.06.08-.08.17-.15.23l-.87.78a3.89,3.89,0,0,1-.66.49,4.87,4.87,0,0,1-.68.36l-.63.25c-.18,0-.39.08-.59.14a2.08,2.08,0,0,1-.92-.09,1.36,1.36,0,0,1-.45-.26,3,3,0,0,1-.47-.35c-.13-.13-.24-.26-.37-.37s-.15-.17-.23-.23a1.74,1.74,0,0,0-.42-.35,1.43,1.43,0,0,0-.37-.23l-.15-.09a2,2,0,0,0-.84-.11,2.24,2.24,0,0,0-.81.15c-.21.09-.45.13-.68.24l-1.05.39c-.37.17-.73.29-1.13.44-.2.11-.44.18-.68.31l-.74.37Z" transform="translate(32.16 -491.14)"/><path class="cls-2" d="M-19.19,501.78l-.26-.11-.78-.42-.64-.25c-.28-.1-.56-.22-.86-.32a5.56,5.56,0,0,0-.8-.32c-.27-.11-.53-.2-.82-.3a2.94,2.94,0,0,0-1.18-.21,1.86,1.86,0,0,0-.78.17,3.77,3.77,0,0,0-.58.36c-.08,0-.13.14-.21.18a4.12,4.12,0,0,1-.35.37,2.18,2.18,0,0,0-.28.25,3.91,3.91,0,0,1-.44.37,4.2,4.2,0,0,1-.38.24,2.93,2.93,0,0,1-.51.13,2.05,2.05,0,0,1-.89-.08,4.53,4.53,0,0,1-1.1-.41l-.6-.36a2,2,0,0,1-.34-.26c-.27-.21-.55-.45-.81-.69a.91.91,0,0,1-.21-.23.86.86,0,0,1-.15-.22s.07,0,.09,0l.68.33.48.18s0,0,.06,0a6.74,6.74,0,0,0,.72.26,2.42,2.42,0,0,0,.86.13,1.74,1.74,0,0,0,.79-.2,6.83,6.83,0,0,0,.6-.37c.13-.09.21-.22.34-.32l.63-.57c.13-.13.23-.25.38-.38a3.26,3.26,0,0,1,.64-.37,1.71,1.71,0,0,1,.92-.15,4.89,4.89,0,0,1,.64.14c.17.05.35.08.51.14a6,6,0,0,1,1,.47c.16.08.32.18.47.27s.39.24.58.36a6.41,6.41,0,0,1,.52.39c.21.15.42.33.66.47l.52.43c.18.13.39.27.57.41s.27.18.32.36Z" transform="translate(32.16 -491.14)"/><path class="cls-2" d="M-25.26,492.29c.08-.1.12-.19.18-.25s.18-.13.28-.22a2.42,2.42,0,0,1,1-.51c.22-.06.47-.09.7-.14a1.77,1.77,0,0,1,.89.08,1.72,1.72,0,0,1,.37.25.59.59,0,0,1,.23.22l.24.4c0,.07,0,.15.07.21a1.79,1.79,0,0,1,0,.86,1.65,1.65,0,0,1-.29.54,1.54,1.54,0,0,1-.68.48,2.67,2.67,0,0,1-.63,0,1.39,1.39,0,0,1-.84-.51c-.08-.08-.1-.23-.18-.35a.91.91,0,0,0-.21-.23,2.21,2.21,0,0,0-.65-.16l-.68-.14c-.06,0-.08,0-.08-.08s.05-.11.08-.11c.34,0,.65-.07,1-.08l.71-.1a2.75,2.75,0,0,1,.42,0c.23-.06.49-.07.73-.11,0,0,.05,0,.05,0s0,0-.05,0h-2.59Z" transform="translate(32.16 -491.14)"/><path class="cls-2" d="M-10.24,492.29h-2.59s0,0-.06,0,0,0,.06,0c.23,0,.49.05.73.11a4.84,4.84,0,0,1,.75.06l.45.06c.27,0,.55.06.81.08H-10c.05,0,.08,0,.08.11s0,.06,0,.08c-.29.06-.55.11-.82.18a2.08,2.08,0,0,0-.23,0,.71.71,0,0,0-.55.39,1.34,1.34,0,0,1-.47.6,1.57,1.57,0,0,1-1,.19,1.54,1.54,0,0,1-1-.69,1.54,1.54,0,0,1-.23-1,1.53,1.53,0,0,1,.31-.81,1.42,1.42,0,0,1,.58-.44,1.17,1.17,0,0,1,.4-.1,2,2,0,0,1,1,.07,3,3,0,0,1,1.05.43l.44.34a2.1,2.1,0,0,1,.19.27" transform="translate(32.16 -491.14)"/><path class="cls-2" d="M-19.66,492.59a.27.27,0,0,1,.18-.28.37.37,0,0,1,.35,0c.2.18.36.32.54.5a.43.43,0,0,1,.24.27.37.37,0,0,1-.19.34.47.47,0,0,1-.42-.07,1,1,0,0,0-.18-.17l-.37-.35a.29.29,0,0,1-.15-.28" transform="translate(32.16 -491.14)"/><path class="cls-2" d="M-15.74,492.59c0,.15-.09.23-.18.31a1.85,1.85,0,0,1-.38.36.55.55,0,0,1-.47.22.29.29,0,0,1-.25-.17A.26.26,0,0,1-17,493c.2-.19.4-.42.6-.61a.59.59,0,0,1,.45-.1s.05,0,.08.06a.2.2,0,0,1,.1.23" transform="translate(32.16 -491.14)"/><path class="cls-1" d="M-18.09,492.55c0-.16,0-.32,0-.49a1.76,1.76,0,0,1,.07-.41.22.22,0,0,1,.23-.17.34.34,0,0,1,.3.13.53.53,0,0,1,.07.37,5.42,5.42,0,0,1,0,.57.36.36,0,0,1-.24.35c-.29,0-.4-.12-.44-.35" transform="translate(32.16 -491.14)"/></g></g></svg>