<svg xmlns="http://www.w3.org/2000/svg" viewBox="0 0 2.15 0.81"><defs><style>.cls-1{fill:#e95f1f;}.cls-1,.cls-2{fill-rule:evenodd;}.cls-2{fill:#4d2580;}</style></defs><title>Fichier 6</title><g id="Calque_2" data-name="Calque 2"><g id="Calque_1-2" data-name="Calque 1"><path class="cls-1" d="M298.92,428.61h0l0,0,.07,0h.29l.08,0h.21l.06,0,0,0s0,0,0,0a.14.14,0,0,1,0,.06.16.16,0,0,1,0,.07.18.18,0,0,1-.05.07h0v0a.07.07,0,0,0,0-.05v0l0-.05-.05,0h-.14l0,0,0,0,0,0,0,0h0l0,0h0v0s0-.05,0-.06h-.13l-.09,0,0,0,0,0s0,0,0-.05Z" transform="translate(-297.79 -428.4)"/><path class="cls-1" d="M298.82,428.62v0s0,0,0,0l0,0,0,0,0,0h0l-.09,0a.08.08,0,0,0-.07,0,.08.08,0,0,0,0,0h0l0,0s0,0,0,0l0,0,0,0,0,0-.05,0-.05,0h-.07l-.05,0,0,.05s0,0,0,.05,0,.06,0,.08h0s0,0,0,0l0,0a0,0,0,0,1,0,0s0,0,0-.07l0,0,0,0,0,0h0l0,0h.29l.08,0h.22l.06,0h0l.05,0Z" transform="translate(-297.79 -428.4)"/><path class="cls-2" d="M299,429.19v0l.05,0,0,0,.07,0,0,0,0,0,0,0,0,0,.05,0h.07l.07,0,0,0,0,0,0,0,0,0h0l.07,0h.14l0,0h0s0,0,0,0l-.07.05-.05,0-.05,0,0,0h-.11l0,0,0,0,0,0v0l0,0h-.17l-.05,0-.07,0-.09,0,0,0-.06,0Z" transform="translate(-297.79 -428.4)"/><path class="cls-2" d="M298.76,429.2h0l-.05,0-.05,0-.07,0-.06,0-.06,0-.09,0h-.05l-.05,0h0l0,0,0,0,0,0,0,0H298l-.09,0,0,0,0,0-.06-.05v0h0l.05,0,0,0h0l.06,0H298l.06,0,0,0,0,0,.05,0,0,0,.05,0h.16l.07,0,0,0,0,0,0,0a.1.1,0,0,0,.05,0l0,0,0,0,0,0Z" transform="translate(-297.79 -428.4)"/><path class="cls-2" d="M298.31,428.49v0l0,0,.08,0h.12l0,0h0l0,0v0a.06.06,0,0,1,0,.06.05.05,0,0,1,0,0,.1.1,0,0,1-.05,0h0s0,0-.06,0l0,0v0h-.08Z" transform="translate(-297.79 -428.4)"/><path class="cls-2" d="M299.43,428.49h-.06l0,0a.09.09,0,0,1,0,.05.11.11,0,0,1-.08,0s-.05,0-.07-.05a.11.11,0,0,1,0-.08.14.14,0,0,1,0-.06l0,0h.11l.07,0,0,0Z" transform="translate(-297.79 -428.4)"/><path class="cls-2" d="M298.73,428.51s0,0,0,0h0l0,0v0s0,0,0,0h0l0,0Z" transform="translate(-297.79 -428.4)"/><path class="cls-2" d="M299,428.51v0l0,0,0,0s0,0,0,0,0,0,0,0l0,0h0Z" transform="translate(-297.79 -428.4)"/><path class="cls-1" d="M298.85,428.51s0,0,0,0v0h0v.07l0,0S298.85,428.52,298.85,428.51Z" transform="translate(-297.79 -428.4)"/></g></g></svg>