<svg xmlns="http://www.w3.org/2000/svg" viewBox="0 0 15.06 8.51"><defs><style>.cls-1{fill:#4cbfdd;fill-rule:evenodd;}</style></defs><title>Fichier 2</title><g id="Calque_2" data-name="Calque 2"><g id="Calque_1-2" data-name="Calque 1"><path class="cls-1" d="M134.3,335.75c.57,1.16,1.46,1.11,2.38,1a9.12,9.12,0,0,1,1.86-.2c1.11.05,1.5.67,1.19,1.73s-.58,2.07-.92,3.21a2.06,2.06,0,0,0-2.55-.9,7.23,7.23,0,0,1-1.81.18c-1-.07-1.44-.69-1.12-1.65s.6-2.1,1-3.33m.21,3.94h.68c0,.31-.08.55-.13.82,1.07-.12,1.07-.12,1.07-1h-.78c.05-.22.1-.45.13-.67-.29-.08-.55-.14-.79-.23.05-.31.13-.55.16-.81.31.05.57.13.86.18-.05.27-.08.51-.13.78l.87-.1c-.06.26-.06.49-.11.74h.84c-.05.29-.08.53-.13.77l.89.12c.08-.3.19-.53.29-.83.29.17.5.32.71.47l.23-.09a2.3,2.3,0,0,0-.28-1c-.4-.49-.45-.44,0-1.06a4.61,4.61,0,0,0,.63.43c.31-.94.29-1-.55-1.3-.08.23-.19.47-.29.75-.29,0-.52-.11-.79-.15.06-.28.08-.5.11-.73-.89,0-.89,0-1.26,1.1l0,0a8.5,8.5,0,0,1-.87-.07,5.73,5.73,0,0,1,.16-.69l-.95-.12c-.08.31-.15.58-.21.88l-.76-.55c-.6.74,0,1.1.4,1.41v1c-.32-.23-.61-.44-.9-.67-.42.67-.26,1.13.42,1.37.19-.26.32-.47.48-.7" transform="translate(-124.77 -335.43)"/><path class="cls-1" d="M125.93,341.48c-.42-1.43-.81-2.65-1.16-3.88a.82.82,0,0,1,.29-.62,2.11,2.11,0,0,1,1.92-.47c.34,0,.68.12,1,.17.95.19,1.84.25,2.44-.91.42,1.4.79,2.65,1.13,3.91a.66.66,0,0,1-.23.55,2.28,2.28,0,0,1-2.13.47,6.26,6.26,0,0,1-.94-.19,1.86,1.86,0,0,0-2.31,1m4.3-1.8c.13.23.26.45.39.7.84-.39.84-.47.45-1.34-.29.23-.58.42-.84.65a1.76,1.76,0,0,1,0-.56c0-.22,0-.5.15-.6.53-.37.45-.77.16-1.26a6.71,6.71,0,0,1-.73.53c-.08-.27-.19-.58-.29-.86l-.87.16c0,.25.08.45.13.68a8.39,8.39,0,0,1-.84.07l0,0c-.21-.58-.26-1.37-1.28-1.06a5.84,5.84,0,0,0,.13.72c-.32,0-.58.07-.87.1a1.75,1.75,0,0,0-.1-.41c-.06-.12-.11-.24-.19-.37-.81.44-.84.48-.44,1.33.21-.14.44-.28.65-.43l.21.07c-.08.3,0,.71-.18.86-.53.4-.47.77-.19,1.28l.69-.47c.13.29.26.55.36.82l.87-.12c0-.27-.13-.5-.18-.82.36.05.63.12.91.18.16.64.42,1.11,1.24.88,0-.23-.11-.46-.16-.75Z" transform="translate(-124.77 -335.43)"/><path class="cls-1" d="M133.09,343.94c-.21-.75-.45-1.47-.74-2.4-.28.93-.52,1.65-.76,2.39h-.13a1.12,1.12,0,0,1-.1-.39s0-.06,0-.1c1.26-2.28.29-4.47-.37-6.66-.1-.33-.21-.65-.29-1a1.12,1.12,0,0,1,.08-.37H131c.45,1.48.87,2.91,1.32,4.36h.13c.44-1.46.89-2.89,1.31-4.37H134a2.87,2.87,0,0,1,0,.67c-.37,1.28-.74,2.53-1.16,3.79a2.54,2.54,0,0,0,0,1.76c.21.55.37,1.11.53,1.69a5.41,5.41,0,0,1,0,.57l-.24,0" transform="translate(-124.77 -335.43)"/><path class="cls-1" d="M134.87,337.84c.06-.3.13-.57.21-.88l.95.12a5.32,5.32,0,0,0-.16.69,8.5,8.5,0,0,0,.87.07c0,.23-.06.43-.11.65.66.11,1.05-.05,1.05-.9l-1,.27c.37-1.07.37-1.07,1.26-1.1,0,.24-.05.46-.11.74.27,0,.5.09.79.15.1-.28.21-.52.29-.75.84.31.86.36.55,1.3a5.73,5.73,0,0,1-.63-.43c-.42.62-.37.57,0,1.06a2.3,2.3,0,0,1,.28,1,1.74,1.74,0,0,1-.23.1c-.21-.15-.42-.3-.71-.47-.1.3-.21.53-.29.83l-.89-.12c0-.24.08-.48.13-.75h-.84c0-.27,0-.5.11-.76l-.87.1c0-.27.08-.51.13-.78-.29-.05-.55-.14-.86-.18Zm3.54.76c-.65-.23-1-.15-1,.63.27.07.56.12.82.17.08-.28.13-.53.23-.8" transform="translate(-124.77 -335.43)"/><path class="cls-1" d="M134.51,339.71v-1c-.4-.31-1-.67-.4-1.41l.76.55,0,0c0,.26-.11.5-.16.81.24.08.5.15.79.23,0,.22-.08.44-.13.67h.78c0,.86,0,.86-1.07,1,.05-.27.1-.51.13-.82h-.68Z" transform="translate(-124.77 -335.43)"/><path class="cls-1" d="M134.51,339.69c-.16.23-.29.44-.48.7-.68-.24-.84-.7-.42-1.37l.9.69Z" transform="translate(-124.77 -335.43)"/><path class="cls-1" d="M128.39,339.54c-.28,0-.55-.1-.91-.17,0,.32.13.55.18.81l-.87.13c-.1-.26-.23-.53-.36-.81l-.69.46c-.28-.5-.34-.89.19-1.28.18-.16.1-.56.18-.84a1.8,1.8,0,0,0-.21-.08l-.65.41c-.4-.84-.37-.88.44-1.33.08.14.13.26.19.39a1.57,1.57,0,0,1,.1.39c.29,0,.55-.07.87-.09a5.66,5.66,0,0,1-.13-.73c1-.31,1.07.49,1.28,1.06-.34-.08-.66-.17-1-.27,0,.82.4,1,1.05.89a3.51,3.51,0,0,0-.08-.63,8.21,8.21,0,0,0,.84-.05c-.05-.25-.08-.46-.13-.7l.87-.16c.1.29.21.59.29.87l0,0L129,338c0,.31.06.57.08.82h0l-.87-.15c.06.33.08.63.13.9Zm-1-.31c0-.8-.44-.83-1-.61a5.94,5.94,0,0,0,.26.78c.31-.06.52-.1.78-.17" transform="translate(-124.77 -335.43)"/><path class="cls-1" d="M129.84,337.8c.26-.17.47-.32.73-.52.29.48.37.87-.16,1.25-.13.11-.13.39-.15.61a1.73,1.73,0,0,0,0,.56h-.76c.05.29.13.52.16.73-.82.24-1.08-.23-1.24-.87v0h1a7.78,7.78,0,0,0-.23-.76l0,0,.89-.19c-.05-.32-.07-.58-.13-.86Z" transform="translate(-124.77 -335.43)"/><path class="cls-1" d="M130.23,339.69c.26-.23.55-.42.84-.65.39.87.39.95-.45,1.34-.13-.25-.26-.47-.39-.7Z" transform="translate(-124.77 -335.43)"/><path class="cls-1" d="M136.71,337.87c.31-.09.6-.19,1-.28,0,.86-.39,1-1.05.9.05-.23.08-.42.11-.65Z" transform="translate(-124.77 -335.43)"/><path class="cls-1" d="M138.41,338.6c-.1.27-.15.52-.23.8-.26,0-.55-.1-.82-.17,0-.78.4-.86,1-.63" transform="translate(-124.77 -335.43)"/><path class="cls-1" d="M129.86,337.78c.06.28.08.54.13.86l-.89.19c0-.25,0-.51-.08-.81.27-.06.55-.16.84-.24" transform="translate(-124.77 -335.43)"/><path class="cls-1" d="M129.13,338.81a8,8,0,0,1,.23.77h-1c0-.28-.07-.56-.13-.92l.87.15" transform="translate(-124.77 -335.43)"/><path class="cls-1" d="M128,337.86a3.19,3.19,0,0,1,.08.63c-.65.15-1.05-.07-1.05-.9l1,.28Z" transform="translate(-124.77 -335.43)"/><path class="cls-1" d="M127.34,339.23c-.26.07-.47.11-.78.17a5.94,5.94,0,0,1-.26-.78c.6-.22,1-.19,1,.61" transform="translate(-124.77 -335.43)"/></g></g></svg>