<svg xmlns="http://www.w3.org/2000/svg" viewBox="0 0 21.19 4.58"><defs><style>.cls-1{fill:none;}.cls-2,.cls-5{fill:#e95f1f;}.cls-2,.cls-3{fill-rule:evenodd;}.cls-3{fill:#4d2580;}.cls-4{fill:#97999a;}</style></defs><title>Fichier 1</title><g id="Calque_2" data-name="Calque 2"><g id="Calque_1-2" data-name="Calque 1"><line class="cls-1" x1="21.19" y1="0.46" y2="0.46"/><path class="cls-2" d="M6.15,1.51l.57.1.48.1.54.08.35.05a2.81,2.81,0,0,0,.65,0c.2,0,.4,0,.59-.08a1,1,0,0,0,.4-.15l.13-.08.31-.18h0a2.81,2.81,0,0,1-.08.31A1.77,1.77,0,0,1,10,2a.86.86,0,0,1-.29.31l-.24.14-.35.12-.18.06c-.22,0-.44.07-.65.12a.74.74,0,0,0-.53.36,2.29,2.29,0,0,0-.08.28.38.38,0,0,1,0,.1s-.22-.16-.29-.24-.13-.14-.2-.2L7,2.91l-.19-.16-.25-.19a2.85,2.85,0,0,0-.37-.23"/><path class="cls-3" d="M9.74.53A.15.15,0,0,1,9.81.4a.17.17,0,0,1,.17,0l.24.24a.36.36,0,0,1,.1.14.17.17,0,0,1-.08.16.19.19,0,0,1-.19,0L10,.84,9.8.67A.18.18,0,0,1,9.74.53Z"/><path class="cls-3" d="M11.48.54c0,.07,0,.1-.07.15a1.37,1.37,0,0,1-.17.17C11.18.92,11.13,1,11,1a.14.14,0,0,1-.11-.08.16.16,0,0,1,0-.15l.27-.29a.19.19,0,0,1,.19,0s0,0,0,0A.09.09,0,0,1,11.48.54Z"/><path class="cls-2" d="M10.44.53V.28l0-.2A.11.11,0,0,1,10.58,0a.14.14,0,0,1,.13.06.31.31,0,0,1,0,.19,1.22,1.22,0,0,1,0,.27.15.15,0,0,1-.1.16A.15.15,0,0,1,10.44.53Z"/><polyline class="cls-4" points="3.17 0.19 7.71 0.19 7.71 4.56"/><polyline class="cls-4" points="13.46 4.56 13.46 0.19 17.99 0.19"/><polyline class="cls-5" points="8.08 2.79 7.8 2.97 7.71 3.16 7.57 3.16 7.55 3 7.55 2.63 7.55 2.24 7.55 1.94 7.57 1.71 7.62 1.61 7.69 1.58 7.74 1.66 7.82 1.79 7.93 1.82"/><path class="cls-2" d="M15,1.52l-.58.11-.48.09-.54.08-.34.05a2.43,2.43,0,0,1-.66,0l-.58-.07a1.21,1.21,0,0,1-.41-.16l-.13-.07L11,1.39h0c0,.1,0,.2.07.3a1.87,1.87,0,0,0,.15.32,1,1,0,0,0,.29.31,1.41,1.41,0,0,0,.24.13,2.42,2.42,0,0,0,.35.12.6.6,0,0,0,.19.06c.21,0,.43.07.64.12a.73.73,0,0,1,.53.37,2.13,2.13,0,0,1,.08.27l0,.11s.22-.16.3-.24L14,3.06l.17-.14.19-.16.25-.18A2.85,2.85,0,0,1,15,2.35"/><polyline class="cls-4" points="17.97 0.2 13.44 0.2 13.44 4.58"/><polyline class="cls-5" points="13.05 2.8 13.33 2.99 13.43 3.18 13.57 3.18 13.58 3.02 13.58 2.65 13.58 2.25 13.58 1.96 13.57 1.72 13.52 1.63 13.44 1.6 13.4 1.68 13.32 1.8 13.21 1.83"/></g></g></svg>