<svg xmlns="http://www.w3.org/2000/svg" viewBox="0 0 3.68 3.68"><defs><style>.cls-1{fill:none;stroke:#4cbfdd;stroke-miterlimit:10;stroke-width:0.1px;fill-rule:evenodd;}.cls-2{fill:#fff;}</style></defs><title>Fichier 1</title><g id="Calque_2" data-name="Calque 2"><g id="Calque_1-2" data-name="Calque 1"><path class="cls-1" d="M3.63,1.84A1.79,1.79,0,1,1,1.84.05,1.79,1.79,0,0,1,3.63,1.84Z"/><path class="cls-2" d="M1.27,1.94l0,0c-.06.05-.11.11-.16.16A.27.27,0,0,0,1,2.36a.27.27,0,0,0,.1.16.3.3,0,0,0,.16,0,.25.25,0,0,0,.18-.08l.19-.18.17-.18L1.94,2l.13-.12a.17.17,0,0,0,0-.21.16.16,0,0,0-.22,0s0,0-.06.05L1.48,2l-.07.07,0,0,0-.05.22-.22.15-.15A.23.23,0,0,1,2,1.55a.25.25,0,0,1,.14.19.33.33,0,0,1-.06.19L2,2.07l-.2.21-.19.18-.09.09a.28.28,0,0,1-.15.08.28.28,0,0,1-.22,0A.28.28,0,0,1,1,2.49.3.3,0,0,1,1,2.2.26.26,0,0,1,1,2.07L1.15,2l.07-.08Z"/><path class="cls-2" d="M1.27,1.94l-.05-.05.06-.06.26-.25.18-.19c.07-.07.14-.13.2-.2a.42.42,0,0,1,.16-.11.39.39,0,0,1,.21,0,.37.37,0,0,1,.17.05.46.46,0,0,1,.15.16.42.42,0,0,1,.05.24.38.38,0,0,1-.07.21l-.1.11-.28.28a.94.94,0,0,0-.1.1c-.09.09-.19.18-.28.28h0s0,0-.05,0l0,0,.07-.07L2,2.26,2,2.18,2.18,2l.13-.13.13-.13.06-.06a.37.37,0,0,0,.09-.16.37.37,0,0,0,0-.18.29.29,0,0,0-.08-.14.27.27,0,0,0-.16-.1l-.12,0a.43.43,0,0,0-.16,0L2,1.24l-.11.11-.18.18-.16.16-.16.16-.09.09Z"/></g></g></svg>