<svg xmlns="http://www.w3.org/2000/svg" viewBox="0 0 43.53 44.82"><defs><style>.cls-1{fill:#4cbfdd;fill-rule:evenodd;}</style></defs><title>Fichier 1</title><g id="Calque_2" data-name="Calque 2"><g id="Calque_1-2" data-name="Calque 1"><path class="cls-1" d="M38.15,21.88c.25,0,.5.07.75.09.54.1,1.07.19,1.64.27l.2.06a.08.08,0,0,1,0,.06c-1,.19-2.08.38-3.11.54-.15,1.11-.31,2.2-.47,3.33l.64.19a.2.2,0,0,0,0,.07l-.71-.16a16.05,16.05,0,0,1-1.47,3.54c.21.14.4.27.62.39,0,0,0,.06,0,.08-.2-.12-.38-.24-.62-.37a14,14,0,0,1-2.44,3.11l.61.44s-.06,0-.06.09c-.19-.17-.38-.32-.55-.49a16.41,16.41,0,0,1-3,2.34,5.25,5.25,0,0,1,.31.63s0,0-.05,0c-.1-.2-.26-.4-.38-.62A15.14,15.14,0,0,1,26.43,37c.05.24.08.47.15.7h-.07c-.06-.22-.11-.43-.16-.66-.4.07-.76.17-1.13.23-.67.09-1.34.16-2,.24-.14,0-.19,0-.22.2-.14.88-.3,1.79-.45,2.68a.85.85,0,0,0-.05.24h-.08a3.15,3.15,0,0,0-.09-.42c-.14-.83-.3-1.69-.43-2.52,0-.11,0-.19-.18-.19a15.31,15.31,0,0,1-3-.44c-.06,0-.08,0-.16,0a5.6,5.6,0,0,1-.21.66h-.07c0-.23.12-.44.2-.7a14.39,14.39,0,0,1-3.57-1.48c-.16.22-.26.42-.39.62a.1.1,0,0,1-.07,0c.12-.2.23-.42.36-.63a15.4,15.4,0,0,1-3.11-2.4,5.5,5.5,0,0,0-.43.59,1,1,0,0,1-.11-.1l.5-.51A15.42,15.42,0,0,1,9.32,30a6,6,0,0,0-.62.35l-.06-.07c.21-.12.4-.25.62-.39A15.37,15.37,0,0,1,7.8,26.33l-.72.16a.2.2,0,0,0,0-.07l.68-.22c-.06-.29-.14-.59-.18-.88-.11-.74-.19-1.48-.29-2.23,0-.15,0-.19-.21-.22s-.45-.08-.68-.12a.37.37,0,0,1-.16-.09c1.23.2,2.47.4,3.71.62l4.54.79c1.43.24,2.87.49,4.26.75.26,0,.54.07.78.12a4.31,4.31,0,0,1-.94-2.57H5v0l1.24.25a1.32,1.32,0,0,1-.35,0c-.53-.1-1-.18-1.56-.29,0,0-.09,0-.16-.11,1-.15,2.07-.34,3.07-.52.18-1.12.33-2.21.5-3.33a6,6,0,0,0-.62-.17v-.08l.72.16a15.93,15.93,0,0,1,1.47-3.55c-.21-.12-.42-.26-.61-.38,0,0,0,0,0-.06.19.1.39.23.62.33a15.24,15.24,0,0,1,2.34-3c-.17-.19-.34-.38-.47-.55a.08.08,0,0,1,0-.06,5.11,5.11,0,0,0,.45.59A15.82,15.82,0,0,1,14.81,9.2c-.13-.21-.24-.41-.36-.63,0,0,0,0,.07,0,.13.2.23.4.37.62a15.38,15.38,0,0,1,3.59-1.46c-.08-.26-.15-.49-.2-.71l.07,0c.08.21.16.44.23.69.32-.07.63-.18,1-.23l2.14-.25c.14,0,.17,0,.17-.14.16-.94.33-1.86.5-2.79,0-.08,0-.14,0-.21h.08a2.85,2.85,0,0,0,.08.51c.15.84.29,1.67.45,2.49a.16.16,0,0,0,.13.14,14.13,14.13,0,0,1,3.15.48l.05,0c0-.22.1-.43.16-.65h.07c0,.22-.1.44-.15.69A15.58,15.58,0,0,1,30,9.15c.12-.22.28-.42.38-.62,0,0,0,0,.05,0-.07.2-.21.41-.31.63a17.2,17.2,0,0,1,3.09,2.39c.15-.19.29-.37.45-.55a.29.29,0,0,1,.08.07c-.16.18-.33.35-.5.52a15,15,0,0,1,2.35,3c.22-.1.43-.23.63-.33,0,0,0,0,0,.05l-.62.39a15.63,15.63,0,0,1,1.47,3.56l.71-.17v.08l-.65.18c.09.51.19,1,.27,1.51s.14,1.05.17,1.57c0,.16,0,.25.22.26s.2.08.33.1l-.1,0-1.6-.28s-.08-.07-.13-.11a4.07,4.07,0,0,1,.42.07A14.22,14.22,0,0,0,23.17,8c.24,1.39.48,2.77.73,4.15a11.07,11.07,0,0,1,3.58,1.21,9.87,9.87,0,0,1,1.83,1.36.28.28,0,0,0,.21,0c.29-.19.55-.4.82-.59l.62-.44a.1.1,0,0,0,.07.05c-.38.53-.75,1-1.09,1.5.29.38.58.72.84,1.08a9.9,9.9,0,0,1,1.78,4.33c0,.13.08.18.23.19l.93.17c.88.14,1.73.3,2.6.45-.15.15-.32,0-.48,0-1.68-.28-3.33-.59-5-.87l-4.65-.81-.83-.14a4.43,4.43,0,0,1,1,2.55H40L38.37,22a.54.54,0,0,1-.22-.09M19.61,20.15l-.23-.06c-.14.25-.25.5-.4.76.43.19.81.33,1.23.49a1.19,1.19,0,0,0,.08-.16c.17-.31.17-.31-.11-.54a3.14,3.14,0,0,1-.57-.51,1,1,0,0,0,.22.14c.24.18.46.36.69.52a3.27,3.27,0,0,0,.37-.38c-.23-.34-.5-.69-.78-1-.23.2-.42.39-.61.58l.11.2m.57,16.36a.84.84,0,0,1-.17.05,1.77,1.77,0,0,1-.32-.05c-.06.23-.08.41-.14.63.29,0,.58.09.87.15,0-.25,0-.45.08-.58a2.93,2.93,0,0,0-.32-.2l1.51.16v-.12c-.22-1.32-.46-2.63-.69-3.95a.27.27,0,0,0-.19-.13c-.55-.15-1.12-.26-1.68-.45a9.28,9.28,0,0,1-3.48-2c-.15-.12-.25-.15-.42,0-.38.29-.8.58-1.18.86a.42.42,0,0,1-.15.06s0,0,0,0c.35-.53.72-1,1.06-1.52-.29-.38-.58-.73-.84-1.09A9.53,9.53,0,0,1,12.34,24c0-.12-.05-.17-.21-.2l-3.57-.62-.46-.06c.07.59.1,1.14.2,1.69a14.65,14.65,0,0,0,2,5.29,15.15,15.15,0,0,0,3.19,3.53,13.57,13.57,0,0,0,4.75,2.47c.63.18,1.28.28,1.91.45M32.59,23.79a10.27,10.27,0,0,1-2.67,5.54c.39.51.74,1,1.11,1.55,0,0,0,0-.07,0s-.05,0-.07,0c-.45-.32-.87-.63-1.32-1-.1-.07-.17-.06-.28,0a17.15,17.15,0,0,1-1.51,1.15,9.44,9.44,0,0,1-3.66,1.36.29.29,0,0,0-.26.27c-.19,1-.34,1.92-.52,2.89-.05.34-.1.7-.17,1.06A14.24,14.24,0,0,0,36.74,23.06l-4.15.73m-17.19-9c.63-.43,1.22-.91,1.83-1.28a10.06,10.06,0,0,1,3.58-1.32c.13,0,.19-.06.2-.16.17-1,.35-2.11.54-3.15.06-.28.1-.58.16-.9a14.2,14.2,0,0,0-10,4.78A14.07,14.07,0,0,0,8.1,21.6c.46-.07.86-.14,1.26-.22.91-.16,1.83-.3,2.74-.47a.22.22,0,0,0,.24-.21q.08-.49.18-1A9.87,9.87,0,0,1,14,16.52c.28-.4.6-.79.92-1.21-.34-.5-.71-1-1.09-1.51,0,0,0,0,.05,0l1.5,1m7-10h0c-.87,4.87-1.71,9.76-2.56,14.7a4,4,0,0,1,2.58-1Zm.08,35.06h0c.85-4.86,1.68-9.74,2.54-14.68a3.94,3.94,0,0,1-2.57,1Zm8.08-19.33a7.69,7.69,0,0,0-1.78-3.6c-.71,1-1.39,1.93-2.11,2.92l3.89.68m-6.32,10a8.19,8.19,0,0,0,3.62-1.8c-1-.72-2-1.41-2.95-2.13-.22,1.32-.45,2.61-.67,3.93M18.2,19.85c-.72-1-1.4-2-2.11-2.94a8.27,8.27,0,0,0-1.82,3.63l3.93-.69M27.87,16a8.35,8.35,0,0,0-3.62-1.8c.22,1.33.45,2.6.67,3.92L27.87,16M17,28.69a8.39,8.39,0,0,0,3.63,1.8c-.23-1.32-.46-2.61-.68-3.93C19,27.28,18,28,17,28.69m-.92-.93c.71-1,1.39-2,2.11-3l-3.93-.67a8.39,8.39,0,0,0,1.82,3.62M17,16,20,18.09c.25-1.32.45-2.6.68-3.92A8.34,8.34,0,0,0,17,16m9.67,8.84c.72,1,1.4,2,2.12,3a8.16,8.16,0,0,0,1.81-3.62l-3.93.67m-7.07-5.2-5.16-5.14,1.69,2.35c.71,1,1.37,1.93,2.08,2.9.05,0,.11.1.15.09.42,0,.82-.12,1.24-.2m-5,10.72c.4-.31.88-.64,1.35-1,1.3-.93,2.58-1.87,3.88-2.81.05,0,.11-.11.09-.13-.05-.42-.13-.84-.21-1.26q-2.59,2.64-5.11,5.18m15.76-16c-.38.25-.71.49-1.05.72l-4,2.94c-.26.16-.38.33-.27.62s.12.6.19.94l5.17-5.22m0,15.87h0l-.15-.26c-.61-.83-1.24-1.68-1.84-2.51S27.25,25.78,26.68,25c0,0-.11-.12-.17-.12-.4,0-.83.13-1.24.2,1.71,1.73,3.41,3.44,5.12,5.13M15.62,28.37c.42-.42.42-.47.11-.89,0,0,0,0,0,0a8.35,8.35,0,0,1-1.47-3.17.3.3,0,0,0-.21-.2A4.67,4.67,0,0,1,13.5,24a9,9,0,0,0,2.12,4.38M28.47,15.52a9.15,9.15,0,0,0-4.35-2.14c0,.21.05.42.08.57a.29.29,0,0,0,.17.16,8.35,8.35,0,0,1,3.5,1.73.22.22,0,0,0,.21,0l.39-.33M24.12,31.28a9.11,9.11,0,0,0,4.37-2.13c-.16-.14-.31-.23-.41-.32a.28.28,0,0,0-.24,0c-.26.17-.52.4-.81.59a6.47,6.47,0,0,1-2.2,1c-.48.1-.71.29-.71.77Zm5.11-15a1.76,1.76,0,0,1-.29.37.16.16,0,0,0,0,.26,1.44,1.44,0,0,1,.28.33,8.78,8.78,0,0,1,1.47,3.14c0,.07.07.15.13.15a5.27,5.27,0,0,0,.6.12,8.88,8.88,0,0,0-2.18-4.37m0,12.08A9.13,9.13,0,0,0,31.41,24l-.47.07a.26.26,0,0,0-.28.24,8.16,8.16,0,0,1-1.09,2.55,12.13,12.13,0,0,1-.7,1c.11.16.23.32.36.52M15.62,16.3a9,9,0,0,0-2.12,4.37,2.66,2.66,0,0,1,.41-.08c.24,0,.29-.1.33-.29a8.26,8.26,0,0,1,1.46-3.08c.33-.43.34-.43,0-.87l-.08-.05m5.14-2.92a9,9,0,0,0-4.35,2.15c.15.1.29.21.42.31s.13.05.22,0a7.52,7.52,0,0,1,3.08-1.6c.45-.11.66-.32.63-.76ZM16.41,29.15a9,9,0,0,0,4.38,2.13c0-.18-.08-.35-.11-.51s0-.17-.17-.2A8.65,8.65,0,0,1,17,28.84a.12.12,0,0,0-.16,0,3.26,3.26,0,0,0-.44.34m6.82-6.81a.77.77,0,0,0-.79-.78.79.79,0,0,0-.8.78.83.83,0,0,0,.83.79.79.79,0,0,0,.76-.79M18.51,13c-.4.19-.75.37-1.11.56.16.29.32.55.48.82.32-.18.65-.34,1-.52-.13-.28-.23-.55-.36-.86m12.43,5.81.88-.37-.55-1.1c-.31.16-.55.31-.83.47.17.32.34.64.5,1m-16.51-1-.83-.46a11.28,11.28,0,0,1-.55,1.1c.33.14.6.26.92.37.15-.34.3-.68.46-1M27,14.34l.52-.84L26.37,13a8.84,8.84,0,0,1-.36.84c.34.18.67.34,1,.52M14,25.9c-.32.11-.61.24-.92.37.21.38.39.73.55,1.1l.83-.46c-.16-.36-.31-.67-.46-1m17.85.36c-.33-.12-.61-.25-.88-.36-.16.34-.33.66-.53,1,.31.14.55.29.86.46.17-.39.36-.72.55-1.11m-5.45,5.45c.4-.2.74-.38,1.13-.56-.18-.28-.35-.54-.5-.81l-1,.49a8.53,8.53,0,0,1,.36.88m-8.49-1.37c-.16.27-.32.53-.48.82l1.11.55c.13-.31.23-.6.36-.88-.34-.18-.67-.32-1-.49m6-10c.27-.34.52-.69.82-1.07L24,18.86c-.2.43-.36.83-.51,1.23l.46.28m.47.42,1-.8c-.21-.21-.4-.42-.63-.63l-.8,1a3.71,3.71,0,0,1,.4.39m-5.44,3c.43-.19.81-.37,1.23-.54A3.28,3.28,0,0,0,20,22.7l-1.32.17c.09.31.16.58.24.88m.48.84c.35-.28.72-.54,1.06-.79l-.26-.49c-.42.17-.83.34-1.23.53l.43.75M24,25.82a7.12,7.12,0,0,1,.77-.46l-.52-.64c-.29-.42-.29-.42-.74-.18,0,0,0,0,0,0,.15.4.31.79.51,1.24m-2.4-1.2c-.19.42-.32.8-.51,1.24l.88.21c0-.47.1-.89.15-1.32-.18,0-.36-.09-.52-.13M24,24.23c.28.36.53.7.78,1.06.23-.21.44-.4.65-.61-.35-.3-.7-.55-1-.8a2.71,2.71,0,0,1-.41.35m-3.45-.36c-.34.27-.69.52-1,.78.21.24.41.43.63.64.26-.36.53-.7.76-1a4.35,4.35,0,0,0-.37-.39m5.67-2.09L26,20.93l-1.23.49a3.49,3.49,0,0,0,.15.54c.43-.05.85-.1,1.32-.18m-1.34.92c-.05.17-.08.35-.13.52.41.18.79.34,1.23.51.08-.29.16-.56.23-.87l-1.33-.16m.61-2.63-1,.82c.09.17.2.3.28.45.4-.17.8-.32,1.2-.51a5.77,5.77,0,0,0-.44-.76m-2.67,4.68c.07.45.15.86.2,1.32.29-.07.55-.15.85-.21-.19-.45-.35-.84-.51-1.26a3.06,3.06,0,0,1-.54.15m-3.86-3.82c-.1.29-.15.57-.24.85.47.08.89.13,1.32.18a3.1,3.1,0,0,0,.15-.52l-1.23-.51m1.25,4.43a7.71,7.71,0,0,1,.74.46c.21-.45.39-.84.55-1.26L21,24.31c-.27.35-.52.7-.8,1.05M23,18.59c0,.47-.13.89-.17,1.32.2.06.33.08.51.14.16-.4.32-.8.51-1.23L23,18.59m-3,3.48c-.43-.07-.88-.12-1.32-.17v.87c.47-.05.89-.09,1.32-.17Zm2.86,4c-.05-.48-.1-.91-.15-1.32h-.56c-.05.43-.11.86-.17,1.32Zm3-2.25c-.43-.2-.81-.36-1.2-.52a3.64,3.64,0,0,0-.28.47l1,.8c.15-.25.31-.49.44-.75M20.18,19.3c.28.38.55.71.82,1.06l.47-.27c-.18-.41-.34-.82-.55-1.23-.24.14-.47.29-.74.44M22,18.59c.06.46.12.87.17,1.31h.56c.05-.45.1-.86.15-1.31ZM21.55,20l.52-.13c-.05-.43-.1-.86-.15-1.32-.32.08-.58.14-.88.24.19.4.32.81.51,1.21m3.33,2.56c.42.08.87.12,1.3.17V21.9c-.43.05-.88.1-1.3.17Zm-5-10.09c.1.32.19.61.27.91l.57-.12c.05,0,.13-.05.13-.09.06-.31.11-.59.16-.93l-1.13.23M32.51,23.8l-.93.16s-.09.07-.09.09c0,.21-.08.41-.13.63.31.07.6.15.92.24.07-.38.15-.73.23-1.12M31.36,20c.05.21.08.4.13.57s0,.12.05.14c.34.07.63.11,1,.16-.08-.39-.16-.73-.23-1.1l-.92.23M13.52,24.68c0-.22-.08-.42-.1-.61,0,0-.06-.1-.1-.1l-.93-.17c.08.39.13.75.23,1.12l.9-.24M25,12.51l-1.11-.23c.06.34.13.62.16.91a.32.32,0,0,0,.1.1l.6.13c.08-.3.17-.59.25-.91m-12.4,7.25c-.1.36-.15.71-.23,1.1l.9-.14a.27.27,0,0,0,.1-.12,4.13,4.13,0,0,0,.13-.61l-.9-.23M21,32.38a1.71,1.71,0,0,1-.08-.46c0-.44-.18-.64-.6-.64h0c-.1,0-.17,0-.19.11s-.13.49-.21.77c.38.09.72.15,1.11.23m3.8-1.14a4.75,4.75,0,0,0-.57.14s-.11,0-.11.06c-.05.31-.12.61-.18.95.39-.09.76-.15,1.11-.24-.08-.32-.17-.6-.25-.91m5-14.54c.25-.21.5-.39.76-.59l-.63-.69-.57.78c.15.16.27.32.44.5m-1.07-2.39c-.2.27-.38.49-.58.75l.5.42c.26-.21.52-.38.8-.57l-.72-.6M15,29.25c.21-.28.38-.52.55-.78-.12-.17-.26-.33-.4-.5-.26.19-.52.38-.76.59.21.23.38.45.61.69m.51-14.34c.25.19.54.38.8.57L16.8,15c-.2-.24-.39-.48-.58-.73l-.69.6M16.8,29.6l-.42-.33a.15.15,0,0,0-.13,0c-.25.17-.47.34-.73.51.26.22.47.41.73.61.16-.26.35-.5.55-.77m12.49-1.14c.19.27.39.51.57.78.21-.23.4-.45.62-.68-.28-.21-.51-.4-.75-.59-.16.18-.29.35-.44.49M14.41,16.12l.76.56a6.25,6.25,0,0,0,.4-.5c-.19-.25-.34-.49-.57-.76l-.59.7m15,13.63c-.26-.2-.52-.36-.78-.54l-.5.39.58.75c.23-.2.47-.37.7-.6M20.52,37.3c.29,0,.6.05.9.08a4.13,4.13,0,0,1,0-.63c-.26,0-.51-.07-.76-.08a.18.18,0,0,0-.12.09,4,4,0,0,0-.07.54M24.46,7.38c0,.23-.05.42-.09.64l.85.14c.05-.21.08-.42.13-.64l-.89-.14m-17,13c0,.32,0,.6-.08.9l.66,0c0-.28,0-.56.09-.84l-.67-.09m29.41,2.95c0,.25-.07.52-.1.82l.65.08c0-.29.08-.54.08-.8a.24.24,0,0,0-.1-.1h-.53M8.26,19.55l-.63-.11c0,.3-.1.59-.14.87l.65.09c0-.29.08-.55.12-.85M18.66,8.38c-.08-.21-.1-.41-.18-.62-.29.1-.55.19-.84.27.08.21.14.41.21.61l.81-.26M8.16,27.15a4.44,4.44,0,0,1,.6-.22,6.93,6.93,0,0,1-.25-.82l-.63.17a7.32,7.32,0,0,0,.28.87m29.24-2.8-.64-.08c0,.28-.09.55-.14.82l.64.14c.05-.3.08-.57.14-.88m-14-16.42.81.06a4.14,4.14,0,0,0,.1-.63c-.28,0-.57-.06-.86-.07,0,.22,0,.41,0,.64m13,8.67a5.86,5.86,0,0,0-.57.26c.1.28.18.54.29.79.21-.07.39-.15.61-.21-.1-.29-.22-.55-.33-.84M26.3,7.74a6.13,6.13,0,0,1-.87-.21c-.05.25-.08.44-.13.67.29,0,.55.1.84.15.05-.19.1-.4.16-.61M8.93,29.05c.16.27.3.51.43.78.2-.1.36-.22.54-.32-.13-.27-.26-.5-.39-.76Zm19,6.65-.78.29a6.17,6.17,0,0,0,.19.61l.83-.31a3.83,3.83,0,0,0-.24-.59M26.4,36.89c.29-.1.58-.17.84-.25-.08-.23-.13-.42-.21-.62l-.81.26a4.69,4.69,0,0,1,.18.61M8.16,27.23c.12.29.22.56.33.83l.6-.26c-.11-.25-.21-.51-.32-.78l-.61.21M17,9l.78-.3c-.07-.21-.13-.42-.21-.61-.27.1-.55.19-.81.3L17,9M7.66,19.34a4.9,4.9,0,0,0,.63.11c.05-.27.12-.52.2-.81a6.48,6.48,0,0,1-.63-.17c-.08.31-.15.58-.2.87M28.25,36.25c.3-.12.54-.26.83-.37-.11-.21-.21-.38-.29-.57l-.76.34a3.33,3.33,0,0,0,.22.6M15.75,8.81c-.29.17-.52.3-.81.45.13.18.23.37.34.53l.72-.4a5.31,5.31,0,0,1-.25-.58m.34.54L16.88,9c-.08-.22-.17-.41-.26-.61a8.26,8.26,0,0,0-.79.38c.08.2.17.37.26.56M36,15.71a5.22,5.22,0,0,0-.58.29c.12.26.23.49.37.75l.58-.23c-.12-.28-.26-.53-.37-.81M36.42,26l.6.18c.08-.31.14-.58.21-.87l-.65-.12c0,.3-.11.53-.16.81M13.31,34.32c.24.19.47.33.74.52.1-.19.21-.33.32-.52-.22-.17-.46-.33-.69-.5-.11.16-.24.33-.37.5M8.89,29l.57-.27c-.12-.27-.23-.53-.35-.78l-.57.25.35.8M37,18.37c-.1-.29-.18-.56-.28-.83l-.6.2c.1.29.16.54.25.81l.63-.18m-1.49-3.52c-.18.1-.37.19-.55.3.13.26.26.5.39.74a5.94,5.94,0,0,0,.58-.27c-.13-.27-.28-.52-.42-.77m-16,21.64c-.3-.06-.55-.12-.83-.2-.06.22-.11.42-.17.63.31.07.58.14.87.19.05-.2.08-.39.13-.62m10.07-1.64-.78.42a5,5,0,0,1,.28.57l.79-.42a3.84,3.84,0,0,1-.29-.57M9.88,14a7.34,7.34,0,0,0-.48.75l.55.31c.16-.26.29-.48.46-.72A4.79,4.79,0,0,0,9.88,14m20.53-3.72c.15-.17.24-.34.37-.51L30,9.3a3.22,3.22,0,0,0-.29.55l.68.44M11,13.57l-.49-.36c-.2.25-.36.46-.53.71.17.12.33.22.53.34l.49-.69m1.93,19.59a6.64,6.64,0,0,1-.6-.58c-.17.17-.34.29-.47.45.22.21.43.4.65.62.13-.18.28-.32.42-.49M11.74,11.73l-.61.63.49.41c.2-.21.35-.4.58-.61-.16-.17-.3-.28-.46-.43M30.89,9.84c-.16.18-.27.34-.4.5.26.18.47.34.72.5.15-.17.23-.32.37-.5-.22-.16-.47-.33-.69-.5m2.45,22c.14.15.3.27.46.42.21-.23.39-.48.55-.69-.16-.13-.3-.27-.47-.39l-.54.66m2.11-1.91-.52-.32c-.16.25-.29.47-.45.74.16.1.31.22.52.33a4.51,4.51,0,0,0,.45-.75M33.06,11.62a5.8,5.8,0,0,1-.63-.59,5.33,5.33,0,0,0-.42.47c.2.21.4.39.58.57l.47-.45m-1.4-1.22c-.17.18-.25.35-.38.51.21.17.42.35.66.53l.4-.46c-.22-.21-.43-.38-.68-.58M13.23,34.26c.13-.19.27-.33.37-.51l-.66-.54c-.13.18-.26.33-.39.49l.68.56m21.2-3.88c-.19.24-.32.47-.5.72.18.11.31.25.51.37l.51-.73c-.18-.12-.34-.22-.52-.36M14.12,34.89c.25.17.5.31.73.47a2.88,2.88,0,0,0,.32-.55c-.25-.15-.49-.29-.72-.46-.12.18-.22.37-.33.54m-2.57-22c-.15-.14-.31-.28-.48-.41-.2.24-.36.46-.56.68l.49.37c.19-.22.37-.42.55-.64M33.14,33l.61-.65a5.65,5.65,0,0,0-.48-.4c-.21.2-.39.42-.6.62.16.14.31.27.47.43m-11.3,4.43c-.08-.63-.08-.66-.32-.59v.59ZM37.5,22.91c-.21.13-.5,0-.67.31.25,0,.46,0,.67.05ZM8,21.44l-.61-.06v.34c.61-.07.61-.07.61-.28M23.33,8c0-.26,0-.47,0-.68H23c.11.21,0,.51.29.68"/><path class="cls-1" d="M.67,23.86C.43,22.81.22,21.8,0,20.76H.52c.15.72.28,1.45.41,2.19H1c.15-.74.33-1.45.47-2.19h.46c.14.74.3,1.45.44,2.19h.06c.14-.73.25-1.45.4-2.19h.45c-.05.18-.05.32-.11.5-.17.77-.34,1.55-.49,2.35,0,.21-.11.28-.31.25H2.11c-.13-.72-.31-1.45-.5-2.23-.13.7-.29,1.33-.4,2,0,.21-.12.28-.33.25H.67"/><path class="cls-1" d="M21.44,0h.5c.07,0,.12.09.15.14.24.59.55,1.19.8,1.78a.72.72,0,0,0,.14.22V0h.43v3.1a1.7,1.7,0,0,1-.39,0A.32.32,0,0,1,22.91,3c-.3-.68-.63-1.38-.94-2.07,0-.05,0-.12-.13-.16V3.11h-.4Z"/><path class="cls-1" d="M21.39,44a4.59,4.59,0,0,0,.45-.14.71.71,0,0,0,.89.53.4.4,0,0,0,.05-.71,6.57,6.57,0,0,0-.66-.32.87.87,0,0,1-.61-.92.85.85,0,0,1,.37-.64,1,1,0,0,1,1.53.6l-.39.16c-.11-.13-.16-.25-.24-.36a.5.5,0,0,0-.55-.08.33.33,0,0,0-.2.39,1.09,1.09,0,0,0,.23.3l.65.29a.84.84,0,0,1,.58,1,.89.89,0,0,1-.85.81A1,1,0,0,1,21.39,44"/><path class="cls-1" d="M41.72,23.84V20.76h1.8v.39H42.26v.9h1v.42c-.28,0-.52,0-.79,0s-.21,0-.21.21,0,.49,0,.78h1.27v.4Z"/></g></g></svg>