<svg xmlns="http://www.w3.org/2000/svg" viewBox="0 0 4.99 2.86"><defs><style>.cls-1{fill:none;stroke:#4cbfdd;stroke-miterlimit:10;stroke-width:0.1px;fill-rule:evenodd;}</style></defs><title>Fichier 1</title><g id="Calque_2" data-name="Calque 2"><g id="Calque_1-2" data-name="Calque 1"><path class="cls-1" d="M3.14.15a.62.62,0,0,0,.77.31A4.39,4.39,0,0,1,4.52.39c.36,0,.49.22.39.57L4.6,2a.65.65,0,0,0-.82-.29,1.9,1.9,0,0,1-.58.05c-.34,0-.48-.21-.38-.53ZM3.2,1.43h.24c0,.1,0,.18,0,.26.36,0,.36,0,.35-.31H3.49l0-.22-.25-.07q0-.15.06-.27L3.6.88c0,.09,0,.17,0,.25l.28,0a1.72,1.72,0,0,1,0,.24h.28c0,.1,0,.17,0,.25l.28,0a1.92,1.92,0,0,1,.11-.27l.22.15.07,0a.74.74,0,0,0-.09-.33C4.51,1,4.48,1,4.62.81L4.83,1c.1-.3.09-.33-.18-.43l-.1.25L4.3.72a1.72,1.72,0,0,1,0-.24c-.29,0-.29,0-.41.36h0a2.4,2.4,0,0,0-.28,0A1.89,1.89,0,0,0,3.7.58l-.31,0c0,.1,0,.19-.05.28L3.09.65c-.2.24,0,.35.11.45v.33l-.28-.21c-.14.21-.09.36.14.43Z"/><path class="cls-1" d="M.43,2C.29,1.55.16,1.15.05.75A.28.28,0,0,1,.14.55.74.74,0,0,1,.76.39l.33.07c.31.06.6.07.79-.3.13.45.26.86.38,1.27a.25.25,0,0,1-.08.17.77.77,0,0,1-.7.16,1.63,1.63,0,0,1-.3-.07A.62.62,0,0,0,.43,2Zm1.39-.58L2,1.65c.26-.12.27-.15.13-.43l-.28.21c0-.06,0-.12,0-.18a.39.39,0,0,1,.06-.2C2.05.93,2,.8,1.94.65L1.7.81A2.14,2.14,0,0,1,1.61.54l-.29,0c0,.09,0,.16,0,.23L1.1.84h0C1,.65,1,.39.68.5.69.56.7.64.72.73L.45.76c0-.05,0-.09,0-.13L.35.5C.08.65.08.67.2.94L.42.8l.07,0c0,.1,0,.23-.07.28a.28.28,0,0,0-.06.41,1.5,1.5,0,0,0,.23-.15c.05.1.08.19.12.27l.28,0c0-.09,0-.16-.06-.27l.29.06c.05.21.14.37.41.29,0-.08,0-.15,0-.24Z"/><path class="cls-1" d="M2.76,2.81c-.08-.24-.16-.48-.25-.78-.09.3-.17.53-.24.77h0a.56.56,0,0,0,0-.12v0A2.65,2.65,0,0,0,2.07.48,1.68,1.68,0,0,1,2,.16S2,.09,2,.05h.07c.14.47.27.94.42,1.42h0L3,.05H3A1.65,1.65,0,0,1,3,.27L2.66,1.5a.8.8,0,0,0,0,.57c.06.18.11.37.16.55a1.08,1.08,0,0,1,0,.18Z"/><path class="cls-1" d="M3.34.83c0-.09,0-.18.05-.28l.31,0a1.89,1.89,0,0,1-.05.23,2.4,2.4,0,0,1,.28,0,1.62,1.62,0,0,1,0,.2c.22,0,.35,0,.34-.29L3.93.84c.12-.35.12-.35.41-.36a1.72,1.72,0,0,0,0,.24l.25.05.1-.25c.27.1.28.13.18.43L4.62.81c-.14.19-.11.18,0,.34a.74.74,0,0,1,.09.33l-.07,0-.22-.15a1.92,1.92,0,0,0-.11.27L4,1.59c0-.08,0-.15,0-.25H3.8a1.72,1.72,0,0,0,0-.24l-.28,0c0-.08,0-.16,0-.25L3.33.82Zm1.13.25c-.2-.08-.33-.05-.33.2l.26.06C4.43,1.24,4.45,1.16,4.47,1.08Z"/><path class="cls-1" d="M3.2,1.44V1.1C3.08,1,2.89.89,3.09.65l.25.18h0q0,.12-.06.27l.25.07,0,.22h.25c0,.27,0,.27-.35.31,0-.08,0-.16,0-.26H3.2Z"/><path class="cls-1" d="M3.2,1.43l-.14.22c-.23-.07-.28-.22-.14-.43a2.69,2.69,0,0,1,.28.22Z"/><path class="cls-1" d="M1.22,1.38.93,1.32c0,.11,0,.18.06.27l-.28,0c0-.08-.07-.17-.12-.27a1.5,1.5,0,0,1-.23.15A.28.28,0,0,1,.42,1.1C.48,1.05.47.92.49.82L.42.8.2.94C.08.67.08.65.35.5L.41.63s0,.08,0,.13l.27,0C.7.64.69.56.68.5,1,.39,1,.65,1.1.84L.78.75c0,.27.13.34.34.29a1.5,1.5,0,0,1,0-.2l.26,0c0-.07,0-.14,0-.23l.29,0A2.14,2.14,0,0,0,1.7.81h0L1.42.88a1.93,1.93,0,0,0,0,.27h0l-.27,0c0,.11,0,.2,0,.29Zm-.34-.1C.86,1,.74,1,.54,1.08a2.58,2.58,0,0,1,.08.26Z"/><path class="cls-1" d="M1.7.81,1.94.65c.09.15.11.28-.06.4a.39.39,0,0,0-.06.2c0,.06,0,.12,0,.18H1.58c0,.09,0,.16,0,.24-.27.08-.36-.08-.41-.29h.32c0-.09-.05-.17-.08-.24h0l.29-.06c0-.11,0-.2-.05-.28Z"/><path class="cls-1" d="M1.81,1.43l.28-.21c.14.28.13.31-.13.43l-.14-.22Z"/><path class="cls-1" d="M3.93.84,4.24.75c0,.28-.12.33-.34.29a1.62,1.62,0,0,0,0-.2Z"/><path class="cls-1" d="M4.47,1.08c0,.08,0,.16-.07.26l-.26-.06C4.14,1,4.27,1,4.47,1.08Z"/><path class="cls-1" d="M1.7.81c0,.08,0,.17.05.28l-.29.06a1.93,1.93,0,0,1,0-.27Z"/><path class="cls-1" d="M1.46,1.15c0,.07.05.15.08.24H1.22c0-.09,0-.18,0-.29Z"/><path class="cls-1" d="M1.1.84a1.5,1.5,0,0,0,0,.2C.91,1.09.78,1,.78.75L1.1.84Z"/><path class="cls-1" d="M.88,1.28l-.26.06a2.58,2.58,0,0,0-.08-.26C.74,1,.86,1,.88,1.28Z"/></g></g></svg>