<svg xmlns="http://www.w3.org/2000/svg" viewBox="0 0 5.97 3.38"><defs><style>.cls-1{fill:#4cbfdd;fill-rule:evenodd;}</style></defs><title>Fichier 1</title><g id="Calque_2" data-name="Calque 2"><g id="Calque_1-2" data-name="Calque 1"><path class="cls-1" d="M6,.08a.21.21,0,0,1,0,.06L5.39.69,5,1.12l-.55.55L4.07,2c-.24.23-.47.47-.71.71,0,0-.07,0-.12,0L3,2.56l-.31-.22h0l-.24.19-.33.27-.31.25-.37.3a.09.09,0,0,1-.13,0v0c0-.22-.07-.44-.11-.66L1.05,2,1,1.69c0-.15-.05-.3-.07-.45s0,0,0,0L.42.93,0,.7S0,.64,0,.61A.09.09,0,0,1,.07.55H.19L.55.5,1,.46l.3,0,.36,0L2,.37l.42,0,.4,0,.42,0,.36,0L4,.18l.35,0,.36,0,.41,0,.42,0,.35,0A.08.08,0,0,1,6,.08Zm-.6.2L4.69.43c-.25,0-.51.12-.76.19l-1,.29-.64.17-.58.16-.36.1,0,0,.54.36.57.39L3,2.48l.27.19a0,0,0,0,0,0,0l.47-.47.59-.6.32-.32L5.13.84,5.76.2v0ZM.17.68l.65.39.16.1H1L1.62,1l.46-.1L2.9.75l1-.23L4.68.35,5.75.11s.06,0,.08,0L.09.63h0ZM1.33,3.29l1.24-1L1.33,1.44ZM1,1.25c.08.51.16,1,.25,1.52h0V1.36a.09.09,0,0,1,.07-.1L2,1.07,2.64.89h0Z"/></g></g></svg>