<svg xmlns="http://www.w3.org/2000/svg" viewBox="0 0 1.77 1.09"><defs><style>.cls-1{fill:#fff;fill-rule:evenodd;}</style></defs><title>Fichier 7</title><g id="Calque_2" data-name="Calque 2"><g id="Calque_1-2" data-name="Calque 1"><path class="cls-1" d="M1.07.66l.24.16c0,.09-.05.09-.15,0L1,.77v0l.16.1L1.19,1,1.1,1A1,1,0,0,0,.92.93a.71.71,0,0,0,.14.1,0,0,0,0,1,0,0H.84C.87.91.74.86.68.77A.42.42,0,0,0,.3.63a.07.07,0,0,1,0-.12L.43.19l.16,0A.6.6,0,0,0,.53.34s0,.1,0,.1a.2.2,0,0,0,.12,0c.14-.19.28-.12.42,0s.22.14.32.22,0,.06,0,.1a.34.34,0,0,1-.1,0L1.08.63Z"/><path class="cls-1" d="M.56.41C.63.17.77.09,1.05.14l.24,0s.06,0,.08,0l.17.3L1.45.65,1,.34C.86.25.85.25.72.36L.57.44S.56.42.56.41Z"/><path class="cls-1" d="M1.34.1,1.49,0c.09.16.18.33.28.49L1.63.58C1.54.41,1.44.26,1.34.1Z"/><path class="cls-1" d="M.14.59,0,.5.28,0,.42.09C.32.25.23.42.14.59Z"/><path class="cls-1" d="M.44.93C.35.86.37.81.53.68.61.75.6.78.44.93Z"/><path class="cls-1" d="M.57,1.05.49,1,.61.83s0,0,.05,0,0,.05,0,.06Z"/><path class="cls-1" d="M.84,1,.7,1.09S.64,1,.64,1A.57.57,0,0,1,.75.93Z"/></g></g></svg>