<svg xmlns="http://www.w3.org/2000/svg" viewBox="0 0 1.11 0.71"><defs><style>.cls-1{fill:#4cbfdd;fill-rule:evenodd;}</style></defs><title>Fichier 4</title><g id="Calque_2" data-name="Calque 2"><g id="Calque_1-2" data-name="Calque 1"><path class="cls-1" d="M290.4,426.44v.28h0l0,0v0h-.1s0,0,0,0a1.7,1.7,0,0,1,0-.22v0a0,0,0,0,1-.05,0h0a0,0,0,0,1,0,0h0s0,0,0,0v-.08s0,0,0,0h0s0,0,.06,0h.24a.54.54,0,0,0,.32-.13l0,0h0v.23a.07.07,0,0,1,0,.11,0,0,0,0,0,0,0v.18a0,0,0,0,1,0,0s0,0,0,0,0,0,0,0a.6.6,0,0,0-.28-.13Z" transform="translate(-290.14 -426.04)"/><path class="cls-1" d="M291.19,426.06h0l-.22.16h0v0l.22-.15S291.18,426,291.19,426.06Z" transform="translate(-290.14 -426.04)"/><path class="cls-1" d="M291.1,426.34h0Z" transform="translate(-290.14 -426.04)"/><path class="cls-1" d="M291.14,426.6h0l-.17-.14h0l0,0,.17.14Z" transform="translate(-290.14 -426.04)"/></g></g></svg>