<svg xmlns="http://www.w3.org/2000/svg" viewBox="0 0 2.93 3.43"><defs><style>.cls-1{fill:#4cbfdd;fill-rule:evenodd;}</style></defs><title>Fichier 1</title><g id="Calque_2" data-name="Calque 2"><g id="Calque_1-2" data-name="Calque 1"><path class="cls-1" d="M1.46,3.43H.08C0,3.43,0,3.42,0,3.36V1.42a.09.09,0,0,1,0-.06L.59.81,1.24.19,1.41,0a.07.07,0,0,1,.11,0l.6.58.51.5.28.26a.08.08,0,0,1,0,.07V3.35c0,.06,0,.08-.08.08Zm0-3.28h0L1,.57l-.89.85s0,0,0,0V3.28s0,0,0,0H2.8V1.47s0,0,0,0l-.34-.32L2.07.74,1.67.35Z"/></g></g></svg>